<mxfile host="app.diagrams.net" agent="Mozilla/5.0 (Windows NT 10.0; Win64; x64) AppleWebKit/537.36 (KHTML, like Gecko) Chrome/134.0.0.0 Safari/537.36" version="26.2.9">
  <diagram id="huyw6AFbiKiV_iyJL-0V" name="Page-1">
    <mxGraphModel dx="874" dy="492" grid="1" gridSize="10" guides="1" tooltips="1" connect="1" arrows="1" fold="1" page="1" pageScale="1" pageWidth="850" pageHeight="1100" math="0" shadow="0">
      <root>
        <mxCell id="0" />
        <mxCell id="1" parent="0" />
        <mxCell id="LDHnodp1Ctgf5cutBLa8-4" value="" style="group" vertex="1" connectable="0" parent="1">
          <mxGeometry x="10" y="80" width="830" height="760" as="geometry" />
        </mxCell>
        <mxCell id="vxh2_wtN0Du66QeG_xhW-19" value="&lt;span style=&quot;font-size: 16px;&quot;&gt;About&lt;/span&gt;" style="rounded=0;whiteSpace=wrap;html=1;" parent="LDHnodp1Ctgf5cutBLa8-4" vertex="1">
          <mxGeometry x="710" y="75" width="120" height="60" as="geometry" />
        </mxCell>
        <mxCell id="vxh2_wtN0Du66QeG_xhW-1" value="&lt;font style=&quot;font-size: 16px;&quot;&gt;User&lt;/font&gt;" style="shape=umlActor;verticalLabelPosition=bottom;verticalAlign=top;html=1;outlineConnect=0;" parent="LDHnodp1Ctgf5cutBLa8-4" vertex="1">
          <mxGeometry y="60" width="60" height="90" as="geometry" />
        </mxCell>
        <mxCell id="vxh2_wtN0Du66QeG_xhW-20" value="" style="endArrow=none;html=1;rounded=0;dashed=1;exitX=0.5;exitY=1;exitDx=0;exitDy=0;" parent="LDHnodp1Ctgf5cutBLa8-4" source="8SduW-KaB-3HcjijNRvp-16" edge="1">
          <mxGeometry width="50" height="50" relative="1" as="geometry">
            <mxPoint x="759.5" y="190" as="sourcePoint" />
            <mxPoint x="770" y="740" as="targetPoint" />
          </mxGeometry>
        </mxCell>
        <mxCell id="vxh2_wtN0Du66QeG_xhW-4" value="" style="rounded=0;whiteSpace=wrap;html=1;" parent="LDHnodp1Ctgf5cutBLa8-4" vertex="1">
          <mxGeometry x="25" y="190" width="10" height="550" as="geometry" />
        </mxCell>
        <mxCell id="vxh2_wtN0Du66QeG_xhW-7" value="&lt;span style=&quot;font-size: 16px;&quot;&gt;Start Packet Capture&lt;/span&gt;" style="rounded=0;whiteSpace=wrap;html=1;" parent="LDHnodp1Ctgf5cutBLa8-4" vertex="1">
          <mxGeometry x="95" y="75" width="120" height="60" as="geometry" />
        </mxCell>
        <mxCell id="vxh2_wtN0Du66QeG_xhW-8" value="&lt;span style=&quot;font-size: 16px;&quot;&gt;Stop Packet Capture&lt;/span&gt;" style="rounded=0;whiteSpace=wrap;html=1;" parent="LDHnodp1Ctgf5cutBLa8-4" vertex="1">
          <mxGeometry x="255" y="75" width="120" height="60" as="geometry" />
        </mxCell>
        <mxCell id="vxh2_wtN0Du66QeG_xhW-9" value="&lt;span style=&quot;font-size: 16px;&quot;&gt;Save Log File&lt;/span&gt;" style="rounded=0;whiteSpace=wrap;html=1;" parent="LDHnodp1Ctgf5cutBLa8-4" vertex="1">
          <mxGeometry x="405" y="75" width="120" height="60" as="geometry" />
        </mxCell>
        <mxCell id="vxh2_wtN0Du66QeG_xhW-12" value="" style="endArrow=none;html=1;rounded=0;dashed=1;exitX=0.5;exitY=1;exitDx=0;exitDy=0;" parent="LDHnodp1Ctgf5cutBLa8-4" source="8SduW-KaB-3HcjijNRvp-12" edge="1">
          <mxGeometry width="50" height="50" relative="1" as="geometry">
            <mxPoint x="155" y="190" as="sourcePoint" />
            <mxPoint x="155" y="740" as="targetPoint" />
          </mxGeometry>
        </mxCell>
        <mxCell id="vxh2_wtN0Du66QeG_xhW-13" value="" style="endArrow=none;html=1;rounded=0;dashed=1;exitX=0.5;exitY=1;exitDx=0;exitDy=0;" parent="LDHnodp1Ctgf5cutBLa8-4" source="8SduW-KaB-3HcjijNRvp-14" edge="1">
          <mxGeometry width="50" height="50" relative="1" as="geometry">
            <mxPoint x="465" y="380" as="sourcePoint" />
            <mxPoint x="464.5" y="740" as="targetPoint" />
          </mxGeometry>
        </mxCell>
        <mxCell id="vxh2_wtN0Du66QeG_xhW-15" value="" style="endArrow=none;html=1;rounded=0;dashed=1;exitX=0.5;exitY=1;exitDx=0;exitDy=0;" parent="LDHnodp1Ctgf5cutBLa8-4" source="8SduW-KaB-3HcjijNRvp-20" edge="1">
          <mxGeometry width="50" height="50" relative="1" as="geometry">
            <mxPoint x="315" y="340" as="sourcePoint" />
            <mxPoint x="314.5" y="740" as="targetPoint" />
          </mxGeometry>
        </mxCell>
        <mxCell id="vxh2_wtN0Du66QeG_xhW-24" value="" style="endArrow=none;html=1;rounded=0;dashed=1;exitX=0.5;exitY=1;exitDx=0;exitDy=0;" parent="LDHnodp1Ctgf5cutBLa8-4" source="vxh2_wtN0Du66QeG_xhW-8" edge="1">
          <mxGeometry width="50" height="50" relative="1" as="geometry">
            <mxPoint x="325" y="275" as="sourcePoint" />
            <mxPoint x="315" y="230" as="targetPoint" />
          </mxGeometry>
        </mxCell>
        <mxCell id="vxh2_wtN0Du66QeG_xhW-26" value="" style="endArrow=none;html=1;rounded=0;dashed=1;exitX=0.5;exitY=1;exitDx=0;exitDy=0;entryX=0.5;entryY=0;entryDx=0;entryDy=0;entryPerimeter=0;" parent="LDHnodp1Ctgf5cutBLa8-4" source="vxh2_wtN0Du66QeG_xhW-9" target="vxh2_wtN0Du66QeG_xhW-38" edge="1">
          <mxGeometry width="50" height="50" relative="1" as="geometry">
            <mxPoint x="475" y="275" as="sourcePoint" />
            <mxPoint x="465" y="260" as="targetPoint" />
          </mxGeometry>
        </mxCell>
        <mxCell id="vxh2_wtN0Du66QeG_xhW-10" value="&lt;span style=&quot;font-size: 16px;&quot;&gt;Open PCAP File&lt;/span&gt;" style="rounded=0;whiteSpace=wrap;html=1;" parent="LDHnodp1Ctgf5cutBLa8-4" vertex="1">
          <mxGeometry x="555" y="75" width="120" height="60" as="geometry" />
        </mxCell>
        <mxCell id="vxh2_wtN0Du66QeG_xhW-14" value="" style="endArrow=none;html=1;rounded=0;dashed=1;exitX=0.5;exitY=1;exitDx=0;exitDy=0;" parent="LDHnodp1Ctgf5cutBLa8-4" source="8SduW-KaB-3HcjijNRvp-15" edge="1">
          <mxGeometry width="50" height="50" relative="1" as="geometry">
            <mxPoint x="614.5" y="190" as="sourcePoint" />
            <mxPoint x="614.5" y="740" as="targetPoint" />
          </mxGeometry>
        </mxCell>
        <mxCell id="vxh2_wtN0Du66QeG_xhW-35" value="" style="endArrow=none;html=1;rounded=0;dashed=1;exitX=0.5;exitY=1;exitDx=0;exitDy=0;" parent="LDHnodp1Ctgf5cutBLa8-4" source="vxh2_wtN0Du66QeG_xhW-10" target="vxh2_wtN0Du66QeG_xhW-27" edge="1">
          <mxGeometry width="50" height="50" relative="1" as="geometry">
            <mxPoint x="615" y="135" as="sourcePoint" />
            <mxPoint x="614.5" y="740" as="targetPoint" />
          </mxGeometry>
        </mxCell>
        <mxCell id="vxh2_wtN0Du66QeG_xhW-27" value="" style="rounded=0;whiteSpace=wrap;html=1;" parent="LDHnodp1Ctgf5cutBLa8-4" vertex="1">
          <mxGeometry x="610" y="390" width="10" height="120" as="geometry" />
        </mxCell>
        <mxCell id="vxh2_wtN0Du66QeG_xhW-37" value="" style="rounded=0;whiteSpace=wrap;html=1;" parent="LDHnodp1Ctgf5cutBLa8-4" vertex="1">
          <mxGeometry x="310" y="230" width="10" height="90" as="geometry" />
        </mxCell>
        <mxCell id="vxh2_wtN0Du66QeG_xhW-38" value="" style="rounded=0;whiteSpace=wrap;html=1;" parent="LDHnodp1Ctgf5cutBLa8-4" vertex="1">
          <mxGeometry x="460" y="270" width="10" height="110" as="geometry" />
        </mxCell>
        <mxCell id="vxh2_wtN0Du66QeG_xhW-39" value="" style="endArrow=classic;html=1;rounded=0;entryX=-0.133;entryY=0.066;entryDx=0;entryDy=0;entryPerimeter=0;exitX=1.089;exitY=0.334;exitDx=0;exitDy=0;exitPerimeter=0;" parent="LDHnodp1Ctgf5cutBLa8-4" source="vxh2_wtN0Du66QeG_xhW-22" target="vxh2_wtN0Du66QeG_xhW-37" edge="1">
          <mxGeometry width="50" height="50" relative="1" as="geometry">
            <mxPoint x="200" y="220" as="sourcePoint" />
            <mxPoint x="340" y="210" as="targetPoint" />
          </mxGeometry>
        </mxCell>
        <mxCell id="vxh2_wtN0Du66QeG_xhW-53" value="&lt;font style=&quot;font-size: 14px;&quot;&gt;Stop Capturing&lt;/font&gt;" style="edgeLabel;html=1;align=center;verticalAlign=middle;resizable=0;points=[];" parent="vxh2_wtN0Du66QeG_xhW-39" vertex="1" connectable="0">
          <mxGeometry x="-0.3218" relative="1" as="geometry">
            <mxPoint x="15" as="offset" />
          </mxGeometry>
        </mxCell>
        <mxCell id="vxh2_wtN0Du66QeG_xhW-40" value="" style="endArrow=classic;html=1;rounded=0;exitX=-0.04;exitY=0.332;exitDx=0;exitDy=0;exitPerimeter=0;" parent="LDHnodp1Ctgf5cutBLa8-4" edge="1">
          <mxGeometry width="50" height="50" relative="1" as="geometry">
            <mxPoint x="309.6" y="297.52" as="sourcePoint" />
            <mxPoint x="160" y="297" as="targetPoint" />
          </mxGeometry>
        </mxCell>
        <mxCell id="vxh2_wtN0Du66QeG_xhW-54" value="&lt;font style=&quot;font-size: 14px;&quot;&gt;Start Capturing&lt;/font&gt;" style="edgeLabel;html=1;align=center;verticalAlign=middle;resizable=0;points=[];" parent="vxh2_wtN0Du66QeG_xhW-40" vertex="1" connectable="0">
          <mxGeometry x="0.1044" y="-2" relative="1" as="geometry">
            <mxPoint x="4" as="offset" />
          </mxGeometry>
        </mxCell>
        <mxCell id="vxh2_wtN0Du66QeG_xhW-41" value="" style="endArrow=classic;html=1;rounded=0;exitX=1.007;exitY=0.266;exitDx=0;exitDy=0;exitPerimeter=0;entryX=0.013;entryY=0.594;entryDx=0;entryDy=0;entryPerimeter=0;" parent="LDHnodp1Ctgf5cutBLa8-4" source="vxh2_wtN0Du66QeG_xhW-4" target="vxh2_wtN0Du66QeG_xhW-38" edge="1">
          <mxGeometry width="50" height="50" relative="1" as="geometry">
            <mxPoint x="170" y="276" as="sourcePoint" />
            <mxPoint x="320" y="277" as="targetPoint" />
          </mxGeometry>
        </mxCell>
        <mxCell id="8SduW-KaB-3HcjijNRvp-1" value="&lt;font style=&quot;font-size: 14px;&quot;&gt;To Save Log&lt;/font&gt;" style="edgeLabel;html=1;align=center;verticalAlign=middle;resizable=0;points=[];" parent="vxh2_wtN0Du66QeG_xhW-41" vertex="1" connectable="0">
          <mxGeometry x="-0.1168" relative="1" as="geometry">
            <mxPoint x="3" as="offset" />
          </mxGeometry>
        </mxCell>
        <mxCell id="vxh2_wtN0Du66QeG_xhW-42" value="" style="endArrow=classic;html=1;rounded=0;exitX=-0.167;exitY=0.818;exitDx=0;exitDy=0;entryX=0.867;entryY=0.309;entryDx=0;entryDy=0;entryPerimeter=0;exitPerimeter=0;" parent="LDHnodp1Ctgf5cutBLa8-4" source="vxh2_wtN0Du66QeG_xhW-38" target="vxh2_wtN0Du66QeG_xhW-4" edge="1">
          <mxGeometry width="50" height="50" relative="1" as="geometry">
            <mxPoint x="468" y="291" as="sourcePoint" />
            <mxPoint x="330" y="291" as="targetPoint" />
          </mxGeometry>
        </mxCell>
        <mxCell id="vxh2_wtN0Du66QeG_xhW-56" value="&lt;span style=&quot;font-size: 14px;&quot;&gt;Save Log as PDF&lt;/span&gt;" style="edgeLabel;html=1;align=center;verticalAlign=middle;resizable=0;points=[];" parent="vxh2_wtN0Du66QeG_xhW-42" vertex="1" connectable="0">
          <mxGeometry x="-0.0141" y="1" relative="1" as="geometry">
            <mxPoint as="offset" />
          </mxGeometry>
        </mxCell>
        <mxCell id="vxh2_wtN0Du66QeG_xhW-45" value="" style="endArrow=classic;html=1;rounded=0;exitX=1.089;exitY=0.334;exitDx=0;exitDy=0;exitPerimeter=0;entryX=0.033;entryY=0.085;entryDx=0;entryDy=0;entryPerimeter=0;" parent="LDHnodp1Ctgf5cutBLa8-4" target="vxh2_wtN0Du66QeG_xhW-22" edge="1">
          <mxGeometry width="50" height="50" relative="1" as="geometry">
            <mxPoint x="35" y="210" as="sourcePoint" />
            <mxPoint x="140" y="210" as="targetPoint" />
          </mxGeometry>
        </mxCell>
        <mxCell id="vxh2_wtN0Du66QeG_xhW-52" value="&lt;font style=&quot;font-size: 14px;&quot;&gt;Start Capturing&lt;/font&gt;" style="edgeLabel;html=1;align=center;verticalAlign=middle;resizable=0;points=[];" parent="vxh2_wtN0Du66QeG_xhW-45" vertex="1" connectable="0">
          <mxGeometry x="-0.0984" y="-2" relative="1" as="geometry">
            <mxPoint as="offset" />
          </mxGeometry>
        </mxCell>
        <mxCell id="vxh2_wtN0Du66QeG_xhW-46" value="" style="endArrow=classic;html=1;rounded=0;exitX=0.867;exitY=0.41;exitDx=0;exitDy=0;entryX=0.1;entryY=0.194;entryDx=0;entryDy=0;exitPerimeter=0;entryPerimeter=0;" parent="LDHnodp1Ctgf5cutBLa8-4" source="vxh2_wtN0Du66QeG_xhW-4" target="vxh2_wtN0Du66QeG_xhW-27" edge="1">
          <mxGeometry width="50" height="50" relative="1" as="geometry">
            <mxPoint x="46" y="440" as="sourcePoint" />
            <mxPoint x="470" y="440" as="targetPoint" />
          </mxGeometry>
        </mxCell>
        <mxCell id="8SduW-KaB-3HcjijNRvp-2" value="&lt;font style=&quot;font-size: 14px;&quot;&gt;Open Existing PCAP Log File&lt;/font&gt;" style="edgeLabel;html=1;align=center;verticalAlign=middle;resizable=0;points=[];" parent="vxh2_wtN0Du66QeG_xhW-46" vertex="1" connectable="0">
          <mxGeometry x="-0.0323" relative="1" as="geometry">
            <mxPoint as="offset" />
          </mxGeometry>
        </mxCell>
        <mxCell id="vxh2_wtN0Du66QeG_xhW-47" value="" style="endArrow=classic;html=1;rounded=0;entryX=0;entryY=0.25;entryDx=0;entryDy=0;" parent="LDHnodp1Ctgf5cutBLa8-4" edge="1">
          <mxGeometry width="50" height="50" relative="1" as="geometry">
            <mxPoint x="611" y="463" as="sourcePoint" />
            <mxPoint x="36" y="463" as="targetPoint" />
          </mxGeometry>
        </mxCell>
        <mxCell id="8SduW-KaB-3HcjijNRvp-3" value="&lt;font style=&quot;font-size: 14px;&quot;&gt;View the logs in new window&lt;/font&gt;" style="edgeLabel;html=1;align=center;verticalAlign=middle;resizable=0;points=[];" parent="vxh2_wtN0Du66QeG_xhW-47" vertex="1" connectable="0">
          <mxGeometry x="0.0574" y="1" relative="1" as="geometry">
            <mxPoint x="-4" as="offset" />
          </mxGeometry>
        </mxCell>
        <mxCell id="vxh2_wtN0Du66QeG_xhW-49" value="" style="endArrow=none;html=1;rounded=0;dashed=1;exitX=0.5;exitY=1;exitDx=0;exitDy=0;" parent="LDHnodp1Ctgf5cutBLa8-4" source="vxh2_wtN0Du66QeG_xhW-19" target="vxh2_wtN0Du66QeG_xhW-28" edge="1">
          <mxGeometry width="50" height="50" relative="1" as="geometry">
            <mxPoint x="770" y="135" as="sourcePoint" />
            <mxPoint x="770" y="740" as="targetPoint" />
          </mxGeometry>
        </mxCell>
        <mxCell id="vxh2_wtN0Du66QeG_xhW-28" value="" style="rounded=0;whiteSpace=wrap;html=1;" parent="LDHnodp1Ctgf5cutBLa8-4" vertex="1">
          <mxGeometry x="765" y="520" width="10" height="110" as="geometry" />
        </mxCell>
        <mxCell id="vxh2_wtN0Du66QeG_xhW-50" value="" style="endArrow=classic;html=1;rounded=0;entryX=0.067;entryY=0.345;entryDx=0;entryDy=0;exitX=0.867;exitY=0.674;exitDx=0;exitDy=0;exitPerimeter=0;entryPerimeter=0;" parent="LDHnodp1Ctgf5cutBLa8-4" source="vxh2_wtN0Du66QeG_xhW-4" target="vxh2_wtN0Du66QeG_xhW-28" edge="1">
          <mxGeometry width="50" height="50" relative="1" as="geometry">
            <mxPoint x="60" y="574.5" as="sourcePoint" />
            <mxPoint x="635" y="574.5" as="targetPoint" />
          </mxGeometry>
        </mxCell>
        <mxCell id="8SduW-KaB-3HcjijNRvp-10" value="&lt;font style=&quot;font-size: 14px;&quot;&gt;View About the Software&lt;/font&gt;" style="edgeLabel;html=1;align=center;verticalAlign=middle;resizable=0;points=[];labelBackgroundColor=light-dark(#ffffff, #ededed);" parent="vxh2_wtN0Du66QeG_xhW-50" vertex="1" connectable="0">
          <mxGeometry x="-0.0574" y="1" relative="1" as="geometry">
            <mxPoint x="-20" as="offset" />
          </mxGeometry>
        </mxCell>
        <mxCell id="vxh2_wtN0Du66QeG_xhW-51" value="" style="endArrow=classic;html=1;rounded=0;entryX=0.933;entryY=0.784;entryDx=0;entryDy=0;exitX=-0.067;exitY=0.897;exitDx=0;exitDy=0;exitPerimeter=0;entryPerimeter=0;" parent="LDHnodp1Ctgf5cutBLa8-4" source="vxh2_wtN0Du66QeG_xhW-28" target="vxh2_wtN0Du66QeG_xhW-4" edge="1">
          <mxGeometry width="50" height="50" relative="1" as="geometry">
            <mxPoint x="776" y="568" as="sourcePoint" />
            <mxPoint x="44" y="571" as="targetPoint" />
          </mxGeometry>
        </mxCell>
        <mxCell id="8SduW-KaB-3HcjijNRvp-11" value="&lt;font style=&quot;font-size: 14px;&quot;&gt;View about the software in new window&lt;/font&gt;" style="edgeLabel;html=1;align=center;verticalAlign=middle;resizable=0;points=[];" parent="vxh2_wtN0Du66QeG_xhW-51" vertex="1" connectable="0">
          <mxGeometry x="0.068" y="1" relative="1" as="geometry">
            <mxPoint x="-9" as="offset" />
          </mxGeometry>
        </mxCell>
        <mxCell id="8SduW-KaB-3HcjijNRvp-5" value="" style="endArrow=none;html=1;rounded=0;dashed=1;exitX=0.5;exitY=1;exitDx=0;exitDy=0;" parent="LDHnodp1Ctgf5cutBLa8-4" target="8SduW-KaB-3HcjijNRvp-4" edge="1">
          <mxGeometry width="50" height="50" relative="1" as="geometry">
            <mxPoint x="465" y="380" as="sourcePoint" />
            <mxPoint x="464.5" y="740" as="targetPoint" />
          </mxGeometry>
        </mxCell>
        <mxCell id="8SduW-KaB-3HcjijNRvp-4" value="" style="rounded=0;whiteSpace=wrap;html=1;" parent="LDHnodp1Ctgf5cutBLa8-4" vertex="1">
          <mxGeometry x="460" y="480" width="10" height="50" as="geometry" />
        </mxCell>
        <mxCell id="8SduW-KaB-3HcjijNRvp-6" value="" style="endArrow=classic;html=1;rounded=0;exitX=1;exitY=0.46;exitDx=0;exitDy=0;exitPerimeter=0;entryX=-0.187;entryY=0.099;entryDx=0;entryDy=0;entryPerimeter=0;" parent="LDHnodp1Ctgf5cutBLa8-4" edge="1">
          <mxGeometry width="50" height="50" relative="1" as="geometry">
            <mxPoint x="610" y="490" as="sourcePoint" />
            <mxPoint x="472" y="490" as="targetPoint" />
          </mxGeometry>
        </mxCell>
        <mxCell id="8SduW-KaB-3HcjijNRvp-7" value="&lt;font style=&quot;font-size: 14px;&quot;&gt;To Save Log&lt;/font&gt;" style="edgeLabel;html=1;align=center;verticalAlign=middle;resizable=0;points=[];" parent="8SduW-KaB-3HcjijNRvp-6" vertex="1" connectable="0">
          <mxGeometry x="-0.1168" relative="1" as="geometry">
            <mxPoint x="3" as="offset" />
          </mxGeometry>
        </mxCell>
        <mxCell id="8SduW-KaB-3HcjijNRvp-8" value="" style="endArrow=classic;html=1;rounded=0;exitX=-0.167;exitY=0.818;exitDx=0;exitDy=0;entryX=0.867;entryY=0.309;entryDx=0;entryDy=0;entryPerimeter=0;exitPerimeter=0;" parent="LDHnodp1Ctgf5cutBLa8-4" edge="1">
          <mxGeometry width="50" height="50" relative="1" as="geometry">
            <mxPoint x="460" y="510" as="sourcePoint" />
            <mxPoint x="35" y="510" as="targetPoint" />
          </mxGeometry>
        </mxCell>
        <mxCell id="8SduW-KaB-3HcjijNRvp-9" value="&lt;span style=&quot;font-size: 14px;&quot;&gt;Save Log as PDF&lt;/span&gt;" style="edgeLabel;html=1;align=center;verticalAlign=middle;resizable=0;points=[];" parent="8SduW-KaB-3HcjijNRvp-8" vertex="1" connectable="0">
          <mxGeometry x="-0.0141" y="1" relative="1" as="geometry">
            <mxPoint as="offset" />
          </mxGeometry>
        </mxCell>
        <mxCell id="8SduW-KaB-3HcjijNRvp-13" value="" style="endArrow=none;html=1;rounded=0;dashed=1;exitX=0.5;exitY=1;exitDx=0;exitDy=0;" parent="LDHnodp1Ctgf5cutBLa8-4" source="vxh2_wtN0Du66QeG_xhW-7" target="8SduW-KaB-3HcjijNRvp-12" edge="1">
          <mxGeometry width="50" height="50" relative="1" as="geometry">
            <mxPoint x="155" y="135" as="sourcePoint" />
            <mxPoint x="155" y="740" as="targetPoint" />
          </mxGeometry>
        </mxCell>
        <mxCell id="8SduW-KaB-3HcjijNRvp-12" value="" style="points=[[0.145,0.145,0],[0.5,0,0],[0.855,0.145,0],[1,0.5,0],[0.855,0.855,0],[0.5,1,0],[0.145,0.855,0],[0,0.5,0]];shape=mxgraph.bpmn.event;html=1;verticalLabelPosition=bottom;labelBackgroundColor=#ffffff;verticalAlign=top;align=center;perimeter=ellipsePerimeter;outlineConnect=0;aspect=fixed;outline=end;symbol=cancel;" parent="LDHnodp1Ctgf5cutBLa8-4" vertex="1">
          <mxGeometry x="130" y="710" width="50" height="50" as="geometry" />
        </mxCell>
        <mxCell id="8SduW-KaB-3HcjijNRvp-17" value="" style="endArrow=none;html=1;rounded=0;dashed=1;exitX=0.5;exitY=1;exitDx=0;exitDy=0;" parent="LDHnodp1Ctgf5cutBLa8-4" source="vxh2_wtN0Du66QeG_xhW-28" target="8SduW-KaB-3HcjijNRvp-16" edge="1">
          <mxGeometry width="50" height="50" relative="1" as="geometry">
            <mxPoint x="770" y="630" as="sourcePoint" />
            <mxPoint x="770" y="740" as="targetPoint" />
          </mxGeometry>
        </mxCell>
        <mxCell id="8SduW-KaB-3HcjijNRvp-16" value="" style="points=[[0.145,0.145,0],[0.5,0,0],[0.855,0.145,0],[1,0.5,0],[0.855,0.855,0],[0.5,1,0],[0.145,0.855,0],[0,0.5,0]];shape=mxgraph.bpmn.event;html=1;verticalLabelPosition=bottom;labelBackgroundColor=#ffffff;verticalAlign=top;align=center;perimeter=ellipsePerimeter;outlineConnect=0;aspect=fixed;outline=end;symbol=cancel;" parent="LDHnodp1Ctgf5cutBLa8-4" vertex="1">
          <mxGeometry x="745" y="710" width="50" height="50" as="geometry" />
        </mxCell>
        <mxCell id="8SduW-KaB-3HcjijNRvp-18" value="" style="endArrow=none;html=1;rounded=0;dashed=1;exitX=0.5;exitY=1;exitDx=0;exitDy=0;" parent="LDHnodp1Ctgf5cutBLa8-4" source="vxh2_wtN0Du66QeG_xhW-27" target="8SduW-KaB-3HcjijNRvp-15" edge="1">
          <mxGeometry width="50" height="50" relative="1" as="geometry">
            <mxPoint x="615" y="510" as="sourcePoint" />
            <mxPoint x="614.5" y="740" as="targetPoint" />
          </mxGeometry>
        </mxCell>
        <mxCell id="8SduW-KaB-3HcjijNRvp-15" value="" style="points=[[0.145,0.145,0],[0.5,0,0],[0.855,0.145,0],[1,0.5,0],[0.855,0.855,0],[0.5,1,0],[0.145,0.855,0],[0,0.5,0]];shape=mxgraph.bpmn.event;html=1;verticalLabelPosition=bottom;labelBackgroundColor=#ffffff;verticalAlign=top;align=center;perimeter=ellipsePerimeter;outlineConnect=0;aspect=fixed;outline=end;symbol=cancel;" parent="LDHnodp1Ctgf5cutBLa8-4" vertex="1">
          <mxGeometry x="590" y="710" width="50" height="50" as="geometry" />
        </mxCell>
        <mxCell id="8SduW-KaB-3HcjijNRvp-19" value="" style="endArrow=none;html=1;rounded=0;dashed=1;exitX=0.5;exitY=1;exitDx=0;exitDy=0;" parent="LDHnodp1Ctgf5cutBLa8-4" source="8SduW-KaB-3HcjijNRvp-4" target="8SduW-KaB-3HcjijNRvp-14" edge="1">
          <mxGeometry width="50" height="50" relative="1" as="geometry">
            <mxPoint x="465" y="530" as="sourcePoint" />
            <mxPoint x="464.5" y="740" as="targetPoint" />
          </mxGeometry>
        </mxCell>
        <mxCell id="8SduW-KaB-3HcjijNRvp-14" value="" style="points=[[0.145,0.145,0],[0.5,0,0],[0.855,0.145,0],[1,0.5,0],[0.855,0.855,0],[0.5,1,0],[0.145,0.855,0],[0,0.5,0]];shape=mxgraph.bpmn.event;html=1;verticalLabelPosition=bottom;labelBackgroundColor=#ffffff;verticalAlign=top;align=center;perimeter=ellipsePerimeter;outlineConnect=0;aspect=fixed;outline=end;symbol=cancel;" parent="LDHnodp1Ctgf5cutBLa8-4" vertex="1">
          <mxGeometry x="440" y="710" width="50" height="50" as="geometry" />
        </mxCell>
        <mxCell id="8SduW-KaB-3HcjijNRvp-21" value="" style="endArrow=none;html=1;rounded=0;dashed=1;exitX=0.5;exitY=1;exitDx=0;exitDy=0;" parent="LDHnodp1Ctgf5cutBLa8-4" target="8SduW-KaB-3HcjijNRvp-20" edge="1" source="vxh2_wtN0Du66QeG_xhW-37">
          <mxGeometry width="50" height="50" relative="1" as="geometry">
            <mxPoint x="315" y="340" as="sourcePoint" />
            <mxPoint x="314.5" y="740" as="targetPoint" />
          </mxGeometry>
        </mxCell>
        <mxCell id="8SduW-KaB-3HcjijNRvp-20" value="" style="points=[[0.145,0.145,0],[0.5,0,0],[0.855,0.145,0],[1,0.5,0],[0.855,0.855,0],[0.5,1,0],[0.145,0.855,0],[0,0.5,0]];shape=mxgraph.bpmn.event;html=1;verticalLabelPosition=bottom;labelBackgroundColor=#ffffff;verticalAlign=top;align=center;perimeter=ellipsePerimeter;outlineConnect=0;aspect=fixed;outline=end;symbol=cancel;" parent="LDHnodp1Ctgf5cutBLa8-4" vertex="1">
          <mxGeometry x="290" y="710" width="50" height="50" as="geometry" />
        </mxCell>
        <mxCell id="LDHnodp1Ctgf5cutBLa8-2" value="&lt;font style=&quot;font-size: 16px;&quot;&gt;Sequence Diagram&lt;/font&gt;" style="rounded=1;arcSize=9;fillColor=#F7F8F9;align=center;spacingLeft=5;strokeColor=#DEE1E6;html=1;strokeWidth=2;fontSize=12" vertex="1" parent="LDHnodp1Ctgf5cutBLa8-4">
          <mxGeometry x="270" width="290" height="40" as="geometry" />
        </mxCell>
        <mxCell id="vxh2_wtN0Du66QeG_xhW-22" value="" style="rounded=0;whiteSpace=wrap;html=1;" parent="LDHnodp1Ctgf5cutBLa8-4" vertex="1">
          <mxGeometry x="150" y="200" width="10" height="110" as="geometry" />
        </mxCell>
      </root>
    </mxGraphModel>
  </diagram>
</mxfile>
